<?xml version="1.0" standalone="no"?>
<!DOCTYPE svg PUBLIC "-//W3C//DTD SVG 20010904//EN"
 "http://www.w3.org/TR/2001/REC-SVG-20010904/DTD/svg10.dtd">
<svg version="1.0" xmlns="http://www.w3.org/2000/svg"
 width="640.000000pt" height="640.000000pt" viewBox="0 0 640.000000 640.000000"
 preserveAspectRatio="xMidYMid meet">
<metadata>
Created by potrace 1.14, written by Peter Selinger 2001-2017
</metadata>
<g transform="translate(0.000000,640.000000) scale(0.100000,-0.100000)"
fill="#000000" stroke="none">
<path d="M0 3200 l0 -3200 3200 0 3200 0 0 3200 0 3200 -3200 0 -3200 0 0
-3200z m5008 2395 c61 -18 124 -71 152 -125 29 -56 40 -143 37 -290 -3 -167
10 -217 68 -276 95 -94 234 -72 297 49 20 38 23 63 29 242 6 209 15 253 59
313 32 43 97 76 150 76 86 -1 160 -58 197 -155 18 -48 17 -3 17 -829 0 -826 1
-781 -17 -829 -37 -97 -111 -154 -197 -155 -53 0 -118 33 -150 76 -44 60 -53
104 -59 313 -6 179 -9 204 -29 242 -63 121 -202 143 -297 49 -58 -59 -71 -109
-68 -276 4 -212 -17 -292 -96 -363 -62 -56 -128 -72 -301 -72 -171 0 -233 15
-298 71 -54 46 -89 114 -102 201 -7 44 -10 324 -8 803 l3 735 24 52 c40 90
115 141 236 163 75 13 291 4 353 -15z m-2752 -134 c30 -14 59 -42 105 -102 81
-108 151 -182 215 -229 68 -51 105 -89 169 -174 61 -82 146 -166 226 -224 72
-52 108 -89 174 -176 61 -82 146 -166 226 -224 72 -52 109 -89 173 -176 59
-79 157 -176 226 -223 25 -17 59 -46 77 -65 45 -47 100 -172 130 -296 l26
-107 -2 -1195 c-1 -792 -6 -1214 -13 -1250 -21 -113 -85 -186 -185 -217 -110
-33 -455 -17 -632 28 -165 43 -243 97 -292 204 -62 134 -89 302 -89 565 0 269
-20 319 -185 485 -60 61 -129 133 -151 160 -23 28 -68 66 -100 85 -56 33 -62
35 -154 35 -92 0 -98 -2 -154 -35 -32 -19 -77 -57 -100 -85 -22 -27 -90 -99
-151 -160 -165 -166 -185 -216 -185 -485 0 -263 -27 -431 -89 -565 -47 -102
-112 -151 -256 -193 -102 -30 -169 -40 -338 -52 -173 -12 -301 -2 -370 28 -60
27 -113 84 -138 151 l-21 56 1 1200 c1 705 6 1227 12 1265 35 239 93 356 219
443 69 48 167 144 226 223 64 87 101 124 173 176 80 58 165 142 226 224 66 87
102 124 174 176 80 58 165 142 226 224 64 85 101 123 169 174 64 47 134 121
215 229 61 80 115 121 161 121 8 0 34 -9 56 -19z m3563 -2657 c91 -27 161
-115 161 -204 0 -78 -51 -154 -127 -192 -46 -22 -58 -23 -253 -23 l-205 0 -54
-30 c-57 -31 -95 -79 -106 -132 -13 -66 51 -155 148 -204 136 -69 197 -137
197 -219 0 -82 -61 -150 -197 -219 -97 -49 -161 -138 -148 -204 11 -53 49
-101 106 -132 l54 -30 205 0 c201 0 207 -1 255 -26 161 -82 164 -294 5 -376
-73 -37 -171 -44 -479 -33 -152 5 -380 10 -507 10 -179 0 -242 3 -283 16 -59
17 -123 70 -151 124 -39 77 -41 127 -38 905 4 853 -1 807 88 896 73 73 104 79
414 80 144 1 347 5 451 9 241 10 396 4 464 -16z"/>
</g>
</svg>
