<svg width="122" height="40" xmlns="http://www.w3.org/2000/svg">

 <g>
  <title>Layer 1</title>
  <g id="svg_1" fill="#000000" transform="matrix(0.09434 0 0 -0.095012 -17.9245 114.965)">
   <path id="svg_2" fill="#ffffff" d="m-82.79858,1132l-77,-77l0,-133l0,-133l63,3l62,3l3,53c3,50 4,52 33,52c29,0 29,-1 29,-55l0,-55l65,0l65,0l0,128l0,127l-83,83l-82,82l-78,-78z"/>
   <path id="svg_3" fill="#ffffff" d="m465.20142,1203c-38,-10 -45,-24 -45,-89c0,-54 3,-65 22,-78c28,-20 88,-21 114,-2c15,12 19,27 19,80c0,36 -4,69 -10,75c-13,12 -74,21 -100,14zm53,-91c3,-37 1,-42 -17,-42c-18,0 -21,6 -21,46c0,38 3,45 18,42c12,-2 18,-15 20,-46z"/>
   <path id="svg_4" fill="#ffffff" d="m240.20142,1110c0,-89 0,-90 25,-90c22,0 25,4 25,35c0,28 4,35 19,35c15,0 21,-8 23,-32c2,-28 7,-33 28,-33c25,0 25,2 28,88l3,87l-31,0c-27,0 -30,-3 -30,-30c0,-23 -4,-30 -20,-30c-16,0 -20,7 -20,30c0,25 -4,30 -25,30c-25,0 -25,-1 -25,-90z"/>
   <path id="svg_5" fill="#ffffff" d="m610.20142,1120c0,-68 3,-81 19,-90c29,-15 83,-12 109,6c19,13 22,24 22,90l0,74l-30,0l-30,0l0,-65c0,-58 -2,-65 -20,-65c-18,0 -20,7 -20,65c0,63 -1,65 -25,65c-25,0 -25,-1 -25,-80z"/>
   <path id="svg_6" fill="#ffffff" d="m803.20142,1193c-16,-6 -17,-75 -1,-91c7,-7 22,-12 34,-12c13,0 26,-4 29,-10c4,-6 -10,-10 -34,-10c-37,0 -41,-2 -41,-25c0,-22 4,-25 39,-25c22,0 51,4 65,10c22,8 26,16 26,49c0,43 -18,61 -60,61c-12,0 -18,4 -15,11c4,6 21,9 38,7c27,-2 33,1 35,20c3,20 0,22 -50,21c-29,0 -59,-3 -65,-6z"/>
   <path id="svg_7" fill="#ffffff" d="m950.20142,1180c0,-11 7,-23 15,-26c10,-4 15,-20 15,-45c0,-28 -4,-39 -15,-39c-9,0 -15,-9 -15,-25c0,-25 2,-26 58,-23c50,3 57,6 60,26c2,15 -2,22 -12,22c-22,0 -22,75 -1,84c8,3 15,15 15,26c0,18 -6,20 -60,20c-54,0 -60,-2 -60,-20z"/>
   <path id="svg_8" fill="#ffffff" d="m1102.20142,1113c3,-86 3,-88 28,-88c22,0 25,5 28,43l3,43l18,-23c10,-13 20,-32 22,-43c3,-12 14,-21 27,-23c21,-3 22,-1 22,87c0,90 0,91 -25,91c-20,0 -25,-5 -25,-27l0,-27l-28,27c-15,15 -38,27 -50,27c-22,0 -23,-3 -20,-87z"/>
   <path id="svg_9" fill="#ffffff" d="m1302.20142,1188c-7,-7 -12,-40 -12,-80c0,-64 2,-69 26,-78c14,-6 45,-10 70,-10l44,0l0,50c0,47 -2,50 -25,50c-20,0 -25,-5 -25,-25c0,-18 -5,-25 -20,-25c-17,0 -20,7 -20,39c0,39 1,40 38,43c30,2 38,7 40,26c3,20 0,22 -50,22c-30,0 -59,-5 -66,-12z"/>
   <path id="svg_10" fill="#ffffff" d="m242.20142,888l3,-93l65,0c60,0 65,2 68,23c3,20 -1,22 -37,22c-46,0 -56,17 -13,22c19,2 28,9 30,26c3,19 -1,22 -27,22c-17,0 -31,5 -31,10c0,6 18,10 40,10c36,0 40,3 40,25c0,24 -2,25 -70,25l-71,0l3,-92z"/>
   <path id="svg_11" fill="#ffffff" d="m412.20142,888l3,-93l53,-3c37,-2 62,2 78,13c22,14 24,23 24,85c0,83 -8,90 -100,90l-61,0l3,-92zm98,-3c0,-38 -3,-45 -20,-45c-17,0 -20,7 -20,45c0,38 3,45 20,45c17,0 20,-7 20,-45z"/>
   <path id="svg_12" fill="#ffffff" d="m600.20142,955c0,-16 6,-25 15,-25c11,0 15,-12 15,-45c0,-34 -4,-45 -16,-45c-10,0 -14,-7 -12,-22c3,-21 8,-23 63,-23c54,0 60,2 63,21c2,15 -3,23 -17,27c-17,4 -21,13 -21,46c0,34 3,41 20,41c15,0 20,7 20,25c0,24 -2,25 -65,25c-63,0 -65,-1 -65,-25z"/>
   <path id="svg_13" fill="#ffffff" d="m750.20142,955c0,-20 5,-25 25,-25c24,0 25,-2 25,-71l0,-70l28,3c26,3 27,5 30,70c3,60 5,67 25,70c14,2 22,10 22,23c0,18 -8,20 -77,23c-78,3 -78,3 -78,-23z"/>
   <path id="svg_14" fill="#ffffff" d="m942.20142,968c-7,-7 -12,-41 -12,-85c0,-83 9,-93 79,-93c61,0 81,25 81,99c0,76 -14,91 -84,91c-28,0 -57,-5 -64,-12zm86,-80c-2,-35 -7,-43 -23,-43c-16,0 -20,7 -21,35c-1,44 2,50 27,50c17,0 20,-6 17,-42z"/>
   <path id="svg_15" fill="#ffffff" d="m1122.20142,888c3,-92 3,-93 28,-93c20,0 26,6 28,28c2,19 9,27 22,27c13,0 20,-8 22,-27c2,-22 9,-29 31,-31c26,-3 27,-2 27,42c0,25 -5,48 -10,51c-6,3 -7,17 -4,30c3,13 1,33 -6,44c-9,18 -20,21 -76,21l-65,0l3,-92zm88,27c0,-8 -7,-15 -15,-15c-8,0 -15,7 -15,15c0,8 7,15 15,15c8,0 15,-7 15,-15z"/>
  </g>
 </g>
</svg>