<?xml version="1.0" standalone="yes"?>
<svg xmlns="http://www.w3.org/2000/svg" width="150" height="150">
<path style="fill:#010101; stroke:none;" d="M0 0L0 150L150 150L150 0L0 0z"/>
<path style="fill:#e4e3e4; stroke:none;" d="M65 88C60.5887 87.4284 54.1324 89.2641 53 94C47.8569 93.5493 43.8362 95.6699 40 99L47 104C39.1348 99.8842 35.8958 100.336 28 104L30 108C24.3548 105.671 21.2877 107.737 16 110L16 111C29.7818 115.7 44.2438 123.792 57 130.861C65.36 135.494 72.7653 141.172 82 136L67 127C77.8253 125.532 84.7304 138.198 95 129L84 122C93.337 122.936 97.5446 127.851 107 124L89 112C101.071 111.902 107.953 124.56 120 117L105 109C115.948 105.502 122.047 119.074 133 110C116.378 100.298 98.4333 91.4319 81 83.2623C75.837 80.8429 66.5987 81.3139 65 88z"/>
<path style="fill:#d2d2d3; stroke:none;" d="M69 83L70 84L69 83M67 84L68 85L67 84M65 85L66 86L65 85M63 86L63 88L65 88L63 86M66 88L66 89L81 95L66 88M57 89L58 90L57 89M55 90L56 91L55 90M53 91L54 92L53 91M51 92L51 94L53 94L51 92M49 93L50 94L49 93M100 93L101 94L100 93M53.6667 94.3333L54.3333 94.6667L53.6667 94.3333M102 94L103 95L102 94M104 95L105 96L104 95M43 96L44 97L43 96M57 96L57 97L61 98L61 97L57 96M82 96L82 97L88 99L88 98L82 96M106 96L107 97L106 96M41 97L42 98L41 97M108 97L109 98L108 97M37 99L37 100L47 104L37 99M62 98L63 99L62 98M110 98L111 99L110 98M112 99L113 100L112 99M65 100L65 101L72 103L72 102L65 100M90 100L90 101L93 101L90 100M114 100L115 101L114 100M116 101L117 102L116 101M31 102L32 103L31 102M118 102L119 103L118 102M29 103L30 104L29 103M120 103L121 104L120 103M25 105L25 106L30 108L28 104L25 105M48 104L48 105L56 108L56 107L48 104M122 104L123 105L122 104M124 105L125 106L124 105M126 106L127 107L126 106M21 107L22 108L21 107M105 109L119 118L124 116C119.998 111.331 111.027 105.591 105 109M128 107L129 108L128 107M19 108L20 109L19 108M30 108L30 109L36 111L36 110L30 108M57 108L57 109L63 112L57 108M130 108L131 109L130 108M17 109L18 110L17 109M132 109L133 110L132 109M133 110L134 111L133 110z"/>
<path style="fill:#9a9a9b; stroke:none;" d="M16 111C16.271 119.276 23.4316 120.963 30 124.247C44.3988 131.446 59.5291 141.543 75 146C74.7357 138.046 67.3038 136.399 61 133.247C46.115 125.804 31.361 117.395 16 111z"/>
<path style="fill:#d2d2d3; stroke:none;" d="M17.6667 111.333L18.3333 111.667L17.6667 111.333M89 112C93.193 117.024 105.928 125.554 112 121C105.477 117.193 96.7201 111.505 89 112M131 111L132 112L131 111z"/>
<path style="fill:#9a9a9b; stroke:none;" d="M132.667 111.333L133.333 111.667L132.667 111.333z"/>
<path style="fill:#d2d2d3; stroke:none;" d="M19 112L20 113L19 112M39 112L39 113L45 115L45 114L39 112M129 112L130 113L129 112z"/>
<path style="fill:#9a9a9b; stroke:none;" d="M130 112L131 113L130 112z"/>
<path style="fill:#737373; stroke:none;" d="M75 140L75 146C90.4709 141.543 105.601 131.446 120 124.247C125.944 121.275 133.423 119.475 134 112L75 140z"/>
<path style="fill:#d2d2d3; stroke:none;" d="M21.6667 113.333L22.3333 113.667L21.6667 113.333M127 113L128 114L127 113z"/>
<path style="fill:#9a9a9b; stroke:none;" d="M128 113L129 114L128 113z"/>
<path style="fill:#d2d2d3; stroke:none;" d="M23 114L24 115L23 114M125 114L126 115L125 114z"/>
<path style="fill:#9a9a9b; stroke:none;" d="M126 114L127 115L126 114z"/>
<path style="fill:#d2d2d3; stroke:none;" d="M25.6667 115.333L26.3333 115.667L25.6667 115.333M46 115L47 116L46 115z"/>
<path style="fill:#9a9a9b; stroke:none;" d="M124 115L125 116L124 115z"/>
<path style="fill:#d2d2d3; stroke:none;" d="M27.6667 116.333L28.3333 116.667L27.6667 116.333M48 116L48 117L52 118L52 117L48 116z"/>
<path style="fill:#9a9a9b; stroke:none;" d="M122 116L123 117L122 116z"/>
<path style="fill:#d2d2d3; stroke:none;" d="M29 117L30 118L29 117z"/>
<path style="fill:#9a9a9b; stroke:none;" d="M120 117L121 118L120 117z"/>
<path style="fill:#d2d2d3; stroke:none;" d="M31 118L32 119L31 118M117 118L118 119L117 118z"/>
<path style="fill:#9a9a9b; stroke:none;" d="M118 118L119 119L118 118z"/>
<path style="fill:#d2d2d3; stroke:none;" d="M33 119L34 120L33 119z"/>
<path style="fill:#9a9a9b; stroke:none;" d="M116 119L117 120L116 119z"/>
<path style="fill:#d2d2d3; stroke:none;" d="M35 120L36 121L35 120M113 120L114 121L113 120z"/>
<path style="fill:#9a9a9b; stroke:none;" d="M114 120L115 121L114 120z"/>
<path style="fill:#d2d2d3; stroke:none;" d="M37.6667 121.333L38.3333 121.667L37.6667 121.333z"/>
<path style="fill:#9a9a9b; stroke:none;" d="M112.667 121.333L113.333 121.667L112.667 121.333z"/>
<path style="fill:#d2d2d3; stroke:none;" d="M39 122L40 123L39 122M84 122C87.3123 127.057 94.2775 129.705 100 128L84 122z"/>
<path style="fill:#9a9a9b; stroke:none;" d="M110 122L111 123L110 122z"/>
<path style="fill:#d2d2d3; stroke:none;" d="M41.6667 123.333L42.3333 123.667L41.6667 123.333z"/>
<path style="fill:#9a9a9b; stroke:none;" d="M108.667 123.333L109.333 123.667L108.667 123.333z"/>
<path style="fill:#d2d2d3; stroke:none;" d="M43 124L44 125L43 124M105 124L106 125L105 124z"/>
<path style="fill:#9a9a9b; stroke:none;" d="M106 124L107 125L106 124z"/>
<path style="fill:#d2d2d3; stroke:none;" d="M45 125L46 126L45 125M103 125L104 126L103 125z"/>
<path style="fill:#9a9a9b; stroke:none;" d="M104 125L105 126L104 125z"/>
<path style="fill:#d2d2d3; stroke:none;" d="M47.6667 126.333L48.3333 126.667L47.6667 126.333M67 127L81 137L86 135L86 133C79.9293 130.473 73.7474 125.356 67 127M101 126L102 127L101 126z"/>
<path style="fill:#9a9a9b; stroke:none;" d="M102 126L103 127L102 126z"/>
<path style="fill:#d2d2d3; stroke:none;" d="M49.6667 127.333L50.3333 127.667L49.6667 127.333z"/>
<path style="fill:#9a9a9b; stroke:none;" d="M100 127L101 128L100 127z"/>
<path style="fill:#d2d2d3; stroke:none;" d="M51.6667 128.333L52.3333 128.667L51.6667 128.333z"/>
<path style="fill:#9a9a9b; stroke:none;" d="M98 128L99 129L98 128z"/>
<path style="fill:#d2d2d3; stroke:none;" d="M53.6667 129.333L54.3333 129.667L53.6667 129.333z"/>
<path style="fill:#9a9a9b; stroke:none;" d="M96.6667 129.333L97.3333 129.667L96.6667 129.333z"/>
<path style="fill:#d2d2d3; stroke:none;" d="M55.6667 130.333L56.3333 130.667L55.6667 130.333M93 130L94 131L93 130z"/>
<path style="fill:#9a9a9b; stroke:none;" d="M94.6667 130.333L95.3333 130.667L94.6667 130.333z"/>
<path style="fill:#d2d2d3; stroke:none;" d="M57.6667 131.333L58.3333 131.667L57.6667 131.333z"/>
<path style="fill:#9a9a9b; stroke:none;" d="M92.6667 131.333L93.3333 131.667L92.6667 131.333z"/>
<path style="fill:#d2d2d3; stroke:none;" d="M59 132L60 133L59 132M89 132L90 133L89 132z"/>
<path style="fill:#9a9a9b; stroke:none;" d="M90.6667 132.333L91.3333 132.667L90.6667 132.333z"/>
<path style="fill:#d2d2d3; stroke:none;" d="M61 133L62 134L61 133M87 133L88 134L87 133z"/>
<path style="fill:#9a9a9b; stroke:none;" d="M88.6667 133.333L89.3333 133.667L88.6667 133.333z"/>
<path style="fill:#d2d2d3; stroke:none;" d="M63 134L64 135L63 134z"/>
<path style="fill:#9a9a9b; stroke:none;" d="M86.6667 134.333L87.3333 134.667L86.6667 134.333z"/>
<path style="fill:#d2d2d3; stroke:none;" d="M65 135L66 136L65 135z"/>
<path style="fill:#9a9a9b; stroke:none;" d="M84.6667 135.333L85.3333 135.667L84.6667 135.333z"/>
<path style="fill:#d2d2d3; stroke:none;" d="M67.6667 136.333L68.3333 136.667L67.6667 136.333z"/>
<path style="fill:#9a9a9b; stroke:none;" d="M82 136L83 137L82 136z"/>
<path style="fill:#d2d2d3; stroke:none;" d="M69 137L70 138L69 137M79 137L80 138L79 137z"/>
<path style="fill:#9a9a9b; stroke:none;" d="M80.6667 137.333L81.3333 137.667L80.6667 137.333z"/>
<path style="fill:#d2d2d3; stroke:none;" d="M71 138L72 139L71 138M77 138L78 139L77 138z"/>
<path style="fill:#9a9a9b; stroke:none;" d="M78 138L79 139L78 138z"/>
<path style="fill:#d2d2d3; stroke:none;" d="M73 139L73 140L76 140L73 139z"/>
<path style="fill:#9a9a9b; stroke:none;" d="M76.6667 139.333L77.3333 139.667L76.6667 139.333z"/>
</svg>
