<?xml version="1.0" encoding="UTF-8"?>
<svg viewBox="0 0 640 480" xmlns="http://www.w3.org/2000/svg">
 <path d="m406.42 378.82c-0.63776-1.2222-14.866-32.035-31.618-68.473l-30.458-66.25-6.7335-3.4213c-12.152-6.1746-26.467-9.0351-36.884-7.3702-15.685 2.507-29.053 12.371-52.462 38.711-17.098 19.239-26.42 27.184-37.391 31.869-8.3723 3.5754-8.644 3.6216-21.121 3.589-13.942-0.036377-19.248-1.3018-30.566-7.2889l-5.8389-3.0889-32.171-70.036c-17.694-38.52-32.173-70.609-32.176-71.31-0.003197-0.87367 1.7992-0.39835 5.742 1.5141 13.72 6.655 27.834 9.5342 37.91 7.7334 15.641-2.7954 27.939-11.802 50.662-37.1 15.255-16.984 24.677-25.829 32.314-30.336 15.802-9.3245 35.036-9.8484 54.22-1.4769 7.2171 3.1492 7.4198 3.1872 7.4198 1.3884 0-1.1154 4.5857-2.7715 7.989-2.8852 0.763-0.025574 131.03 281.85 131.03 283.53 0 0.3537-1.1856 0.90042-2.6348 1.2149-1.4492 0.31451-3.408 0.82837-4.3531 1.1419-1.1319 0.37555-2.1138-0.1882-2.8778-1.6523zm-201.43-74.525c3.0017-0.98614 8.6607-3.7693 12.576-6.1848l7.1181-4.3917-1.8323-3.9894c-1.0077-2.1942-3.8519-8.3464-6.3204-13.672l-4.4882-9.6822-6.5171 4.2413c-6.4562 4.2018-16.099 8.0248-20.241 8.0248-1.1814 0-2.1481 0.49301-2.1481 1.0956 0 0.6026 2.5469 6.7781 5.6598 13.723 6.3822 14.239 6.2003 14.118 16.193 10.835zm-22.948-25.189c0-0.26514-2.7092-6.319-6.0204-13.453-3.3113-7.134-6.0204-13.275-6.0204-13.647 0-0.37207 2.8323-1.3831 6.294-2.2469 6.666-1.6633 11.434-3.8415 17.945-8.1985 2.1937-1.4679 4.2338-2.669 4.5335-2.669 0.29961 0 3.1351 5.6431 6.3011 12.54 3.166 6.8971 6.2188 12.966 6.7842 13.487 1.1573 1.0657 6.9645-4.2024 17.475-15.853 3.6395-4.0342 6.7217-7.3348 6.8492-7.3348 0.12755 0 2.8555 5.7495 6.0622 12.777 3.2067 7.0272 6.2137 12.777 6.6824 12.777 0.46858 0 3.2-2.6619 6.0697-5.9152 2.8698-3.2534 8.0912-8.5254 11.603-11.716l6.3856-5.8003-5.3495-11.709c-2.9421-6.4398-5.6893-12.528-6.1047-13.529-0.67716-1.632-1.2727-1.3869-5.7493 2.3661-2.7467 2.3026-8.1885 7.7003-12.093 11.995-3.9045 4.2945-7.2667 7.8081-7.4717 7.8081-0.20494 0-3.1757-6.1979-6.6016-13.773-3.426-7.5752-6.3578-13.644-6.5151-13.487-0.15741 0.1575-4.221 4.5454-9.0302 9.7507-4.8091 5.2054-10.202 10.643-11.983 12.083l-3.239 2.619-5.7969-13.03c-3.1883-7.1664-6.195-13.403-6.6817-13.86-0.48852-0.45822-3.0243 0.68591-5.6616 2.5546-5.3049 3.7584-14.83 7.8824-20.286 8.7828-1.9566 0.32295-3.5575 0.87436-3.5575 1.2254 0 0.35097 2.7092 6.475 6.0204 13.609s6.0204 13.188 6.0204 13.453c0 1.0147-10.764 0.41952-16.736-0.92532-3.4374-0.77414-9.698-2.9089-13.913-4.7441-4.2146-1.8351-7.6629-3.2048-7.6629-3.0437 0 0.16101 2.8399 6.4483 6.3109 13.972l6.3109 13.679 8.1926 3.5394c4.506 1.9467 10.902 4.1546 14.213 4.9065 5.8559 1.3297 16.419 1.9792 16.419 1.0095zm153.19-52.164c-3.0901-6.7013-6.1589-12.75-6.8195-13.441-1.8429-1.9284-10.37-5.4073-18.694-7.6265-8.4763-2.2599-19.897-2.7514-18.999-0.81758 0.30209 0.65068 3.1489 6.8262 6.3262 13.723l5.777 12.54h6.8108c7.3514 0 17.698 2.4559 25.65 6.0882 2.7092 1.2376 5.07 2.1303 5.2463 1.9839 0.17624-0.14645-2.2077-5.7492-5.2978-12.45zm-179.96-4.3802c0.2898-0.65295-2.1414-6.9349-5.4025-13.96-3.2612-7.025-5.7012-13.092-5.4224-13.482 0.27885-0.39043 1.1984-0.70981 2.0432-0.70981 3.5935 0 14.088-4.212 20.221-8.1157 6.535-4.1596 6.629-4.1852 7.5706-2.0704 4.0402 9.074 11.484 24.944 11.881 25.329 0.62334 0.60521 8.4178-6.9236 16.89-16.314 3.6337-4.0277 6.963-7.1329 7.3984-6.9002 0.43527 0.23267 3.3956 6.2076 6.5783 13.278 3.1828 7.0702 6.1442 12.731 6.5807 12.579 0.43666-0.15182 4.7545-3.5349 9.5954-9.7403s10.072-10.485 11.624-11.732l2.822-2.2672 1.019 2.2672c0.56046 1.247 3.3057 7.3608 6.1007 13.586 2.7949 6.2254 5.2584 11.472 5.4746 11.658 0.21616 0.18686 2.7811-1.2444 5.6999-3.1807 5.5933-3.7104 15.567-7.9562 18.747-7.9807 5.2713-0.040558 5.1712-1.1778-1.3433-15.269-3.4539-7.4707-6.3802-13.674-6.5027-13.785-0.12259-0.11098-2.6628 0.35646-5.645 1.0387-6.7161 1.5365-12.882 4.2321-18.434 8.06-2.3404 1.6134-4.557 2.93-4.9258 2.9258-0.36873-0.004181-3.3315-5.8602-6.5838-13.014-3.2523-7.1532-6.095-13.192-6.3169-13.42-0.73268-0.75183-10.296 7.8596-17.014 15.32-3.6324 4.0342-6.9551 7.3349-7.3836 7.3349-0.42856 0-3.4136-5.7732-6.6334-12.829-3.2198-7.056-6.1479-12.986-6.5069-13.178-0.35898-0.19191-4.176 3.5583-8.4824 8.3336-7.815 8.6663-15.259 15.543-15.989 14.77-0.21216-0.22473-3.0088-6.1581-6.2148-13.185-3.206-7.0273-5.9576-12.922-6.1146-13.099-0.15703-0.17708-2.9092 1.3673-6.116 3.432-7.5146 4.8383-9.9741 5.9246-17.489 7.7246l-6.1859 1.4816 5.9122 12.736c3.2517 7.005 5.9121 13.334 5.9121 14.064 0 1.0726-1.3885 1.1989-7.2338 0.65765-8.099-0.74988-15.759-2.8146-24.261-6.5398-3.1471-1.3789-5.722-2.1449-5.722-1.7021 0 2.6894 11.419 25.571 13.602 27.255 7.1901 5.5466 34.713 12.108 36.251 8.6424zm154.04-51.911l-6.3163-13.625-6.7835-3.1018c-11.177-5.1107-30.981-8.7023-30.981-5.6185 0 0.66946 2.6603 6.9514 5.9116 13.96l5.9117 12.743 7.1578 0.6261c8.8933 0.77791 16.983 2.8664 24.803 6.4038 3.3112 1.4977 6.1536 2.614 6.3163 2.4806 0.16281-0.13336-2.5464-6.3738-6.0203-13.868zm-60.608-18.756c2.1668-0.94122 5.9102-2.2271 8.3183-2.8576 2.4081-0.63051 4.9628-1.3033 5.6771-1.4949 0.86114-0.23108-0.73688-4.7498-4.7443-13.415-3.3236-7.1864-6.4782-13.457-7.0103-13.935-2.2446-2.0159-15.768 2.9882-25.996 9.6193l-3.2784 2.1254-6.003-12.972c-3.3017-7.1348-6.5268-13.123-7.167-13.308-1.0906-0.31432-18.558 17.178-22.014 22.046-1.4528 2.0461-1.1151 3.2309 4.3073 15.114 3.2361 7.0916 6.1672 13.045 6.5136 13.23 0.34644 0.1851 4.3002-3.6755 8.7863-8.5791 8.2651-9.0342 15.002-15.257 15.711-14.512 0.32162 0.33789 8.3186 17.486 11.781 25.261 0.95132 2.1365 0.95698 2.1354 6.066-1.2365 2.8126-1.8563 6.8867-4.1451 9.0536-5.0863zm40.609-24.193c0-0.25169-2.4861-5.8948-5.5245-12.54-6.2626-13.697-7.4897-14.916-19.312-19.185-7.4187-2.6792-23.712-5.656-24.976-4.563-0.31856 0.27544 2.2446 6.7395 5.696 14.365l6.2751 13.864 6.6065 0.0126c6.9004 0.013245 21.866 3.8617 26.92 6.923 2.5807 1.5629 4.3149 2.0148 4.3149 1.1246z"/>
</svg>
