<svg id="svg" version="1.1" xmlns="http://www.w3.org/2000/svg" xmlns:xlink="http://www.w3.org/1999/xlink" width="400" height="561.6666666666666" viewBox="0, 0, 400,561.6666666666666"><g id="svgg"><path id="path0" d="M61.692 33.362 C 51.225 35.416,44.902 42.446,43.174 53.952 C 42.426 58.929,42.411 519.968,43.158 525.167 C 45.038 538.250,53.003 545.593,66.000 546.225 C 77.808 546.798,86.725 541.592,90.363 532.000 C 92.482 526.414,92.333 535.857,92.333 406.584 C 92.333 328.708,92.445 289.667,92.667 289.667 C 92.851 289.667,97.246 290.937,102.434 292.489 C 202.275 322.361,254.827 321.348,355.833 287.606 C 371.489 282.376,373.390 281.476,375.615 278.241 C 379.430 272.697,379.242 264.813,375.086 256.000 C 347.296 197.069,346.611 155.681,372.517 100.667 C 378.195 88.607,378.862 86.121,378.080 79.922 C 377.022 71.546,371.819 67.345,362.500 67.345 C 358.558 67.345,357.099 67.749,338.000 74.125 C 258.599 100.634,216.494 104.785,161.333 91.544 C 143.958 87.373,113.711 76.980,93.917 68.378 L 92.333 67.690 92.327 61.762 C 92.314 48.912,89.464 41.842,82.350 37.011 C 77.318 33.594,68.473 32.032,61.692 33.362 M96.271 95.693 C 126.221 107.122,144.503 112.818,165.307 117.201 C 217.573 128.214,259.910 124.070,335.936 100.502 C 345.051 97.676,346.110 99.577,341.851 111.120 C 324.716 157.568,325.706 200.599,345.001 248.025 C 351.818 264.783,352.764 263.302,330.833 270.213 C 246.767 296.705,200.119 296.511,109.500 269.291 C 89.485 263.279,88.618 262.882,87.285 259.112 C 86.775 257.668,86.590 99.978,87.096 97.596 C 87.846 94.066,90.543 93.507,96.271 95.693 " stroke="none" fill="#040404" fill-rule="evenodd"></path><path id="path1" d="M88.372 95.346 C 87.815 95.903,87.240 96.916,87.096 97.596 C 86.590 99.978,86.775 257.668,87.285 259.112 C 88.618 262.882,89.485 263.279,109.500 269.291 C 200.119 296.511,246.767 296.705,330.833 270.213 C 346.059 265.415,347.511 264.819,348.700 262.868 C 350.035 260.678,349.857 259.961,345.001 248.025 C 325.706 200.599,324.716 157.568,341.851 111.120 C 346.110 99.577,345.051 97.676,335.936 100.502 C 259.910 124.070,217.573 128.214,165.307 117.201 C 144.503 112.818,126.221 107.122,96.271 95.693 C 91.708 93.951,89.848 93.870,88.372 95.346 " stroke="none" fill="#64fc04" fill-rule="evenodd"></path></g></svg>