<?xml version="1.0" encoding="utf-8"?>
<svg viewBox="258.721 173.023 150.001 40" width="150.001" height="40" xmlns="http://www.w3.org/2000/svg">
  <g transform="matrix(0.09434, 0, 0, -0.095012, 240.796021, 287.987732)" fill="#000000" stroke="none">
    <path d="M267 1132 l-77 -77 0 -133 0 -133 63 3 62 3 3 53 c3 50 4 52 33 52 29 0 29 -1 29 -55 l0 -55 65 0 65 0 0 128 0 127 -83 83 -82 82 -78 -78z" style="fill: rgb(255, 255, 255);"/>
    <path d="M815 1203 c-38 -10 -45 -24 -45 -89 0 -54 3 -65 22 -78 28 -20 88 -21 114 -2 15 12 19 27 19 80 0 36 -4 69 -10 75 -13 12 -74 21 -100 14z m53 -91 c3 -37 1 -42 -17 -42 -18 0 -21 6 -21 46 0 38 3 45 18 42 12 -2 18 -15 20 -46z" style="fill: rgb(255, 255, 255);"/>
    <path d="M590 1110 c0 -89 0 -90 25 -90 22 0 25 4 25 35 0 28 4 35 19 35 15 0 21 -8 23 -32 2 -28 7 -33 28 -33 25 0 25 2 28 88 l3 87 -31 0 c-27 0 -30 -3 -30 -30 0 -23 -4 -30 -20 -30 -16 0 -20 7 -20 30 0 25 -4 30 -25 30 -25 0 -25 -1 -25 -90z" style="fill: rgb(255, 255, 255);"/>
    <path d="M960 1120 c0 -68 3 -81 19 -90 29 -15 83 -12 109 6 19 13 22 24 22 90 l0 74 -30 0 -30 0 0 -65 c0 -58 -2 -65 -20 -65 -18 0 -20 7 -20 65 0 63 -1 65 -25 65 -25 0 -25 -1 -25 -80z" style="fill: rgb(255, 255, 255);"/>
    <path d="M1153 1193 c-16 -6 -17 -75 -1 -91 7 -7 22 -12 34 -12 13 0 26 -4 29 -10 4 -6 -10 -10 -34 -10 -37 0 -41 -2 -41 -25 0 -22 4 -25 39 -25 22 0 51 4 65 10 22 8 26 16 26 49 0 43 -18 61 -60 61 -12 0 -18 4 -15 11 4 6 21 9 38 7 27 -2 33 1 35 20 3 20 0 22 -50 21 -29 0 -59 -3 -65 -6z" style="fill: rgb(255, 255, 255);"/>
    <path d="M1300 1180 c0 -11 7 -23 15 -26 10 -4 15 -20 15 -45 0 -28 -4 -39 -15 -39 -9 0 -15 -9 -15 -25 0 -25 2 -26 58 -23 50 3 57 6 60 26 2 15 -2 22 -12 22 -22 0 -22 75 -1 84 8 3 15 15 15 26 0 18 -6 20 -60 20 -54 0 -60 -2 -60 -20z" style="fill: rgb(255, 255, 255);"/>
    <path d="M1452 1113 c3 -86 3 -88 28 -88 22 0 25 5 28 43 l3 43 18 -23 c10 -13 20 -32 22 -43 3 -12 14 -21 27 -23 21 -3 22 -1 22 87 0 90 0 91 -25 91 -20 0 -25 -5 -25 -27 l0 -27 -28 27 c-15 15 -38 27 -50 27 -22 0 -23 -3 -20 -87z" style="fill: rgb(255, 255, 255);"/>
    <path d="M1652 1188 c-7 -7 -12 -40 -12 -80 0 -64 2 -69 26 -78 14 -6 45 -10 70 -10 l44 0 0 50 c0 47 -2 50 -25 50 -20 0 -25 -5 -25 -25 0 -18 -5 -25 -20 -25 -17 0 -20 7 -20 39 0 39 1 40 38 43 30 2 38 7 40 26 3 20 0 22 -50 22 -30 0 -59 -5 -66 -12z" style="fill: rgb(255, 255, 255);"/>
    <path d="M592 888 l3 -93 65 0 c60 0 65 2 68 23 3 20 -1 22 -37 22 -46 0 -56 17 -13 22 19 2 28 9 30 26 3 19 -1 22 -27 22 -17 0 -31 5 -31 10 0 6 18 10 40 10 36 0 40 3 40 25 0 24 -2 25 -70 25 l-71 0 3 -92z" style="fill: rgb(228, 3, 3);"/>
    <path d="M762 888 l3 -93 53 -3 c37 -2 62 2 78 13 22 14 24 23 24 85 0 83 -8 90 -100 90 l-61 0 3 -92z m98 -3 c0 -38 -3 -45 -20 -45 -17 0 -20 7 -20 45 0 38 3 45 20 45 17 0 20 -7 20 -45z" style="fill: rgb(255, 140, 0);"/>
    <path d="M950 955 c0 -16 6 -25 15 -25 11 0 15 -12 15 -45 0 -34 -4 -45 -16 -45 -10 0 -14 -7 -12 -22 3 -21 8 -23 63 -23 54 0 60 2 63 21 2 15 -3 23 -17 27 -17 4 -21 13 -21 46 0 34 3 41 20 41 15 0 20 7 20 25 0 24 -2 25 -65 25 -63 0 -65 -1 -65 -25z" style="fill: rgb(255, 237, 0);"/>
    <path d="M1100 955 c0 -20 5 -25 25 -25 24 0 25 -2 25 -71 l0 -70 28 3 c26 3 27 5 30 70 3 60 5 67 25 70 14 2 22 10 22 23 0 18 -8 20 -77 23 -78 3 -78 3 -78 -23z" style="fill: rgb(0, 128, 38);"/>
    <path d="M1292 968 c-7 -7 -12 -41 -12 -85 0 -83 9 -93 79 -93 61 0 81 25 81 99 0 76 -14 91 -84 91 -28 0 -57 -5 -64 -12z m86 -80 c-2 -35 -7 -43 -23 -43 -16 0 -20 7 -21 35 -1 44 2 50 27 50 17 0 20 -6 17 -42z" style="fill: rgb(36, 64, 142);"/>
    <path d="M1472 888 c3 -92 3 -93 28 -93 20 0 26 6 28 28 2 19 9 27 22 27 13 0 20 -8 22 -27 2 -22 9 -29 31 -31 26 -3 27 -2 27 42 0 25 -5 48 -10 51 -6 3 -7 17 -4 30 3 13 1 33 -6 44 -9 18 -20 21 -76 21 l-65 0 3 -92z m88 27 c0 -8 -7 -15 -15 -15 -8 0 -15 7 -15 15 0 8 7 15 15 15 8 0 15 -7 15 -15z" style="fill: rgb(115, 41, 130);"/>
  </g>
</svg>